<svg width="84" height="36" viewBox="0 0 84 36" fill="none" xmlns="http://www.w3.org/2000/svg">
<g opacity="0.8">
<rect x="0.5" y="2.5" width="31" height="31" rx="5.5" fill="black"/>
<rect x="0.5" y="2.5" width="31" height="31" rx="5.5" stroke="url(#paint0_linear_78_175)"/>
<rect x="4.5" y="6.5" width="23" height="23" rx="3.5" fill="white"/>
<rect x="4.5" y="6.5" width="23" height="23" rx="3.5" stroke="url(#paint1_linear_78_175)"/>
<path d="M22.93 16.22C22.93 16.7267 22.76 17.16 22.42 17.52C22.0867 17.8733 21.5733 18.0667 20.88 18.1V19.25H20.53V18.1C20.2033 18.0867 19.8933 18.0233 19.6 17.91C19.3133 17.79 19.0667 17.6033 18.86 17.35C18.6533 17.09 18.5167 16.7433 18.45 16.31L19.05 16.11C19.0833 16.5167 19.17 16.84 19.31 17.08C19.45 17.32 19.6267 17.4933 19.84 17.6C20.06 17.7 20.29 17.7567 20.53 17.77V14.99L20.12 14.87C19.6133 14.73 19.2267 14.4933 18.96 14.16C18.6933 13.8267 18.56 13.42 18.56 12.94C18.56 12.6267 18.63 12.3333 18.77 12.06C18.91 11.7867 19.1233 11.5633 19.41 11.39C19.7033 11.21 20.0767 11.1133 20.53 11.1V9.95H20.88V11.11C21.36 11.1367 21.7467 11.25 22.04 11.45C22.3333 11.65 22.5333 11.9033 22.64 12.21C22.7533 12.51 22.78 12.83 22.72 13.17L21.88 13.35C21.9533 12.79 21.9067 12.3467 21.74 12.02C21.58 11.6867 21.2933 11.4933 20.88 11.44V14.16L21.26 14.27C22.3733 14.5767 22.93 15.2267 22.93 16.22ZM19.3 12.69C19.3 13.0167 19.39 13.2967 19.57 13.53C19.7567 13.7567 20.0767 13.9333 20.53 14.06V11.42C20.15 11.4333 19.85 11.55 19.63 11.77C19.41 11.99 19.3 12.2967 19.3 12.69ZM22.2 16.48C22.2 16.14 22.1 15.8567 21.9 15.63C21.7 15.3967 21.36 15.2167 20.88 15.09V17.77C21.2733 17.7433 21.59 17.6233 21.83 17.41C22.0767 17.19 22.2 16.88 22.2 16.48Z" fill="black"/>
<path d="M13.49 24.542V22.832H8.288V22.256C8.9 21.608 9.428 20.978 9.872 20.366C10.316 19.742 10.7 19.1 11.024 18.44C11.348 17.78 11.63 17.072 11.87 16.316C12.122 15.548 12.35 14.696 12.554 13.76H14.462C13.982 15.452 13.28 16.97 12.356 18.314C11.432 19.658 10.328 20.972 9.044 22.256H13.49V19.43L15.056 19.178V22.256H16.442V22.832H15.056V24.542C15.056 24.962 15.074 25.208 15.11 25.28C15.146 25.352 15.26 25.4 15.452 25.424L16.442 25.532V26H11.744V25.532L13.094 25.424C13.286 25.412 13.4 25.37 13.436 25.298C13.472 25.214 13.49 24.962 13.49 24.542Z" fill="black"/>
<path d="M42.653 17H34.578V15.623L35.139 15.572C35.4677 15.538 35.632 15.3793 35.632 15.096V7.191L34.663 7.14V5.695H42.449V8.517L40.715 8.636V7.956C40.715 7.76333 40.6867 7.62733 40.63 7.548C40.5733 7.46867 40.4373 7.429 40.222 7.429H37.706V10.336H41.633V12.07H37.706V15.249H40.443C40.647 15.249 40.7773 15.2093 40.834 15.13C40.8907 15.0393 40.919 14.8977 40.919 14.705V13.855L42.653 13.974V17ZM44.4861 15.096L47.2231 7.174L46.1521 7.072V5.695H50.0451L53.5131 15.504H53.5301L54.4991 15.555V17H50.1131V15.623L50.7591 15.572C50.9517 15.5493 51.0821 15.504 51.1501 15.436C51.2181 15.368 51.2237 15.2433 51.1671 15.062L50.8101 14.008H46.8321L46.3221 15.504L47.3421 15.555V17H43.4151V15.623L43.9761 15.572C44.2141 15.5493 44.3841 15.3907 44.4861 15.096ZM48.8211 7.599L47.2401 12.444H50.4021L48.8721 7.599H48.8211ZM61.9979 7.497C61.8733 7.28167 61.4086 7.174 60.6039 7.174C59.5499 7.174 58.7509 7.531 58.2069 8.245C57.6629 8.959 57.3909 9.99033 57.3909 11.339C57.3909 14.1383 58.4393 15.538 60.5359 15.538C60.5699 15.538 60.7173 15.538 60.9779 15.538C61.2499 15.538 61.5049 15.504 61.7429 15.436C61.9809 15.3567 62.1226 15.2773 62.1679 15.198C62.2133 15.1187 62.2359 14.994 62.2359 14.824V13.464L63.9699 13.583V16.524C63.0859 16.9887 61.9639 17.221 60.6039 17.221C58.8699 17.221 57.5439 16.7337 56.6259 15.759C55.7193 14.7843 55.2659 13.3337 55.2659 11.407C55.2659 10.3417 55.4189 9.41233 55.7249 8.619C56.0309 7.82567 56.4446 7.208 56.9659 6.766C57.9859 5.916 59.1986 5.491 60.6039 5.491C61.7373 5.491 62.8026 5.72333 63.7999 6.188V9.078L62.0659 9.197V7.871C62.0659 7.701 62.0433 7.57633 61.9979 7.497ZM73.2955 15.011V12.07H68.4845V15.504L69.4705 15.555V17H65.3565V15.623L65.9175 15.572C66.2462 15.538 66.4105 15.3793 66.4105 15.096V7.191L65.4415 7.14V5.695H69.5555V7.072L68.9945 7.123C68.8132 7.14567 68.6828 7.19667 68.6035 7.276C68.5242 7.344 68.4845 7.48 68.4845 7.684V10.319H73.2955V7.191L72.3265 7.14V5.695H76.4405V7.072L75.8795 7.123C75.5508 7.157 75.3865 7.33833 75.3865 7.667V15.504L76.3555 15.555V17H72.2415V15.623L72.8025 15.572C72.9725 15.5493 73.0972 15.504 73.1765 15.436C73.2558 15.3567 73.2955 15.215 73.2955 15.011Z" fill="url(#paint2_linear_78_175)"/>
<path d="M39.52 20.168C40.7893 20.168 41.8507 20.616 42.704 21.512C43.5573 22.408 43.984 23.7787 43.984 25.624C43.984 27.4587 43.5573 28.8507 42.704 29.8C41.8613 30.7387 40.7147 31.208 39.264 31.208C37.824 31.208 36.6933 30.7387 35.872 29.8C35.0507 28.8613 34.64 27.496 34.64 25.704C34.64 24.7227 34.784 23.864 35.072 23.128C35.36 22.3813 35.7387 21.8053 36.208 21.4C37.1573 20.5787 38.2613 20.168 39.52 20.168ZM36.64 25.624C36.64 28.2693 37.5573 29.592 39.392 29.592C40.3733 29.592 41.0613 29.1867 41.456 28.376C41.8187 27.6613 42 26.7867 42 25.752C42 24.824 41.84 23.9707 41.52 23.192C41.3387 22.7653 41.0613 22.4293 40.688 22.184C40.3253 21.9387 39.8507 21.816 39.264 21.816C38.6773 21.816 38.1707 22.008 37.744 22.392C37.328 22.776 37.04 23.24 36.88 23.784C36.72 24.328 36.64 24.9413 36.64 25.624ZM47.6286 29.208V21.944H46.3806C46.1353 21.944 46.0126 22.1093 46.0126 22.44V23.192L44.3806 23.08V20.36H52.7486V23.08L51.1166 23.192V22.44C51.1166 22.2587 51.09 22.1307 51.0366 22.056C50.9833 21.9813 50.8553 21.944 50.6526 21.944H49.5646V29.592L50.8286 29.64V31H46.3166V29.704L47.1646 29.656C47.474 29.624 47.6286 29.4747 47.6286 29.208ZM60.9684 29.128V26.36H56.4404V29.592L57.3684 29.64V31H53.4964V29.704L54.0244 29.656C54.3337 29.624 54.4884 29.4747 54.4884 29.208V21.768L53.5764 21.72V20.36H57.4484V21.656L56.9204 21.704C56.7497 21.7253 56.627 21.7733 56.5524 21.848C56.4777 21.912 56.4404 22.04 56.4404 22.232V24.712H60.9684V21.768L60.0564 21.72V20.36H63.9284V21.656L63.4004 21.704C63.091 21.736 62.9364 21.9067 62.9364 22.216V29.592L63.8484 29.64V31H59.9764V29.704L60.5044 29.656C60.6644 29.6347 60.7817 29.592 60.8564 29.528C60.931 29.4533 60.9684 29.32 60.9684 29.128ZM72.519 31H64.919V29.704L65.447 29.656C65.7563 29.624 65.911 29.4747 65.911 29.208V21.768L64.999 21.72V20.36H72.327V23.016L70.695 23.128V22.488C70.695 22.3067 70.6683 22.1787 70.615 22.104C70.5617 22.0293 70.4337 21.992 70.231 21.992H67.863V24.728H71.559V26.36H67.863V29.352H70.439C70.631 29.352 70.7537 29.3147 70.807 29.24C70.8603 29.1547 70.887 29.0213 70.887 28.84V28.04L72.519 28.152V31ZM73.6683 31V29.704L74.1963 29.656C74.5056 29.624 74.6603 29.4747 74.6603 29.208V21.768L73.7483 21.72V20.36H78.1163C79.3536 20.36 80.3029 20.5893 80.9643 21.048C81.6256 21.5067 81.9563 22.2587 81.9563 23.304C81.9563 24.0293 81.7643 24.6267 81.3802 25.096C81.0069 25.5653 80.5589 25.9067 80.0363 26.12C80.4203 26.2587 80.7243 26.584 80.9483 27.096L82.1003 29.608L83.0123 29.64V31H79.0603V29.704L79.5243 29.656C79.7696 29.624 79.8923 29.528 79.8923 29.368C79.8923 29.304 79.8709 29.2293 79.8283 29.144L79.0763 27.544C78.9589 27.2773 78.8256 27.0907 78.6763 26.984C78.5376 26.8667 78.3349 26.808 78.0683 26.808H76.6123V29.592L77.6523 29.64V31H73.6683ZM76.6123 25.288H78.0043C79.3163 25.288 79.9723 24.7013 79.9723 23.528C79.9723 22.856 79.7963 22.4187 79.4443 22.216C79.1029 22.0133 78.5483 21.912 77.7803 21.912H76.6123V25.288Z" fill="url(#paint3_linear_78_175)"/>
</g>
<defs>
<linearGradient id="paint0_linear_78_175" x1="32" y1="18" x2="0" y2="18" gradientUnits="userSpaceOnUse">
<stop stop-color="#4C8455"/>
<stop offset="1" stop-color="#3C2E79"/>
</linearGradient>
<linearGradient id="paint1_linear_78_175" x1="26.3636" y1="18" x2="4" y2="18" gradientUnits="userSpaceOnUse">
<stop stop-color="#4C8455"/>
<stop offset="0.495192" stop-color="#3C2E79"/>
</linearGradient>
<linearGradient id="paint2_linear_78_175" x1="73.2059" y1="10.4375" x2="36.5402" y2="9.67945" gradientUnits="userSpaceOnUse">
<stop stop-color="#3C2E79"/>
<stop offset="1" stop-color="#666666"/>
</linearGradient>
<linearGradient id="paint3_linear_78_175" x1="78.697" y1="24.5" x2="35.9425" y2="26.3345" gradientUnits="userSpaceOnUse">
<stop stop-color="#4C8455"/>
<stop offset="1" stop-color="#666666"/>
</linearGradient>
</defs>
</svg>
